<mxfile host="app.diagrams.net" modified="2022-10-18T21:46:50.044Z" agent="5.0 (Macintosh; Intel Mac OS X 10_15_7) AppleWebKit/537.36 (KHTML, like Gecko) Chrome/105.0.0.0 Safari/537.36" etag="Vs87LP1zxwtvnAIKUnrX" version="20.4.1" type="github">
  <diagram id="84svWBP_A2izCRy9N3Cg" name="Page-1">
    <mxGraphModel dx="1426" dy="769" grid="1" gridSize="10" guides="1" tooltips="1" connect="1" arrows="1" fold="1" page="1" pageScale="1" pageWidth="850" pageHeight="1100" math="0" shadow="0">
      <root>
        <mxCell id="0" />
        <mxCell id="1" parent="0" />
        <mxCell id="ZawDycogkMAxbrw4sLiI-1" value="User Service" style="rounded=0;whiteSpace=wrap;html=1;" vertex="1" parent="1">
          <mxGeometry x="300" y="90" width="120" height="60" as="geometry" />
        </mxCell>
        <mxCell id="ZawDycogkMAxbrw4sLiI-2" value="ElectricityUsage Service" style="whiteSpace=wrap;html=1;" vertex="1" parent="1">
          <mxGeometry x="305" y="210" width="120" height="60" as="geometry" />
        </mxCell>
        <mxCell id="ZawDycogkMAxbrw4sLiI-3" value="Dashboard Service" style="whiteSpace=wrap;html=1;" vertex="1" parent="1">
          <mxGeometry x="300" y="310" width="120" height="60" as="geometry" />
        </mxCell>
        <mxCell id="ZawDycogkMAxbrw4sLiI-4" value="Actor" style="shape=umlActor;verticalLabelPosition=bottom;verticalAlign=top;html=1;outlineConnect=0;" vertex="1" parent="1">
          <mxGeometry x="70" y="90" width="30" height="60" as="geometry" />
        </mxCell>
        <mxCell id="ZawDycogkMAxbrw4sLiI-6" value="" style="edgeStyle=orthogonalEdgeStyle;rounded=0;orthogonalLoop=1;jettySize=auto;html=1;" edge="1" parent="1" source="ZawDycogkMAxbrw4sLiI-5" target="ZawDycogkMAxbrw4sLiI-4">
          <mxGeometry relative="1" as="geometry" />
        </mxCell>
        <mxCell id="ZawDycogkMAxbrw4sLiI-7" value="" style="edgeStyle=orthogonalEdgeStyle;rounded=0;orthogonalLoop=1;jettySize=auto;html=1;" edge="1" parent="1" source="ZawDycogkMAxbrw4sLiI-5" target="ZawDycogkMAxbrw4sLiI-1">
          <mxGeometry relative="1" as="geometry" />
        </mxCell>
        <mxCell id="ZawDycogkMAxbrw4sLiI-5" value="" style="outlineConnect=0;dashed=0;verticalLabelPosition=bottom;verticalAlign=top;align=center;html=1;shape=mxgraph.aws3.classic_load_balancer;fillColor=#F58534;gradientColor=none;" vertex="1" parent="1">
          <mxGeometry x="140" y="84" width="69" height="72" as="geometry" />
        </mxCell>
        <mxCell id="ZawDycogkMAxbrw4sLiI-8" value="User Service" style="rounded=0;whiteSpace=wrap;html=1;" vertex="1" parent="1">
          <mxGeometry x="310" y="100" width="120" height="60" as="geometry" />
        </mxCell>
        <mxCell id="ZawDycogkMAxbrw4sLiI-9" value="User Service" style="rounded=0;whiteSpace=wrap;html=1;" vertex="1" parent="1">
          <mxGeometry x="320" y="110" width="120" height="60" as="geometry" />
        </mxCell>
        <mxCell id="ZawDycogkMAxbrw4sLiI-10" value="Actor" style="shape=umlActor;verticalLabelPosition=bottom;verticalAlign=top;html=1;outlineConnect=0;" vertex="1" parent="1">
          <mxGeometry x="90" y="310" width="30" height="60" as="geometry" />
        </mxCell>
        <mxCell id="ZawDycogkMAxbrw4sLiI-12" value="" style="edgeStyle=orthogonalEdgeStyle;rounded=0;orthogonalLoop=1;jettySize=auto;html=1;" edge="1" parent="1" source="ZawDycogkMAxbrw4sLiI-11" target="ZawDycogkMAxbrw4sLiI-3">
          <mxGeometry relative="1" as="geometry" />
        </mxCell>
        <mxCell id="ZawDycogkMAxbrw4sLiI-13" value="" style="edgeStyle=orthogonalEdgeStyle;rounded=0;orthogonalLoop=1;jettySize=auto;html=1;" edge="1" parent="1" source="ZawDycogkMAxbrw4sLiI-11" target="ZawDycogkMAxbrw4sLiI-10">
          <mxGeometry relative="1" as="geometry" />
        </mxCell>
        <mxCell id="ZawDycogkMAxbrw4sLiI-11" value="" style="outlineConnect=0;dashed=0;verticalLabelPosition=bottom;verticalAlign=top;align=center;html=1;shape=mxgraph.aws3.classic_load_balancer;fillColor=#F58534;gradientColor=none;" vertex="1" parent="1">
          <mxGeometry x="160" y="304" width="69" height="72" as="geometry" />
        </mxCell>
        <mxCell id="ZawDycogkMAxbrw4sLiI-14" value="Dashboard Service" style="whiteSpace=wrap;html=1;" vertex="1" parent="1">
          <mxGeometry x="310" y="320" width="120" height="60" as="geometry" />
        </mxCell>
        <mxCell id="ZawDycogkMAxbrw4sLiI-15" value="Dashboard Service" style="whiteSpace=wrap;html=1;" vertex="1" parent="1">
          <mxGeometry x="320" y="330" width="120" height="60" as="geometry" />
        </mxCell>
        <mxCell id="ZawDycogkMAxbrw4sLiI-16" value="Dashboard Service" style="whiteSpace=wrap;html=1;" vertex="1" parent="1">
          <mxGeometry x="330" y="340" width="120" height="60" as="geometry" />
        </mxCell>
        <mxCell id="ZawDycogkMAxbrw4sLiI-17" value="Meters" style="rounded=1;whiteSpace=wrap;html=1;" vertex="1" parent="1">
          <mxGeometry x="60" y="210" width="60" height="40" as="geometry" />
        </mxCell>
        <mxCell id="ZawDycogkMAxbrw4sLiI-18" value="Meters" style="rounded=1;whiteSpace=wrap;html=1;" vertex="1" parent="1">
          <mxGeometry x="70" y="220" width="60" height="40" as="geometry" />
        </mxCell>
        <mxCell id="ZawDycogkMAxbrw4sLiI-19" value="Meters" style="rounded=1;whiteSpace=wrap;html=1;" vertex="1" parent="1">
          <mxGeometry x="80" y="230" width="60" height="40" as="geometry" />
        </mxCell>
        <mxCell id="ZawDycogkMAxbrw4sLiI-22" value="" style="endArrow=classic;html=1;rounded=0;exitX=1;exitY=0.5;exitDx=0;exitDy=0;" edge="1" parent="1" source="ZawDycogkMAxbrw4sLiI-19">
          <mxGeometry width="50" height="50" relative="1" as="geometry">
            <mxPoint x="140" y="255" as="sourcePoint" />
            <mxPoint x="310" y="250" as="targetPoint" />
          </mxGeometry>
        </mxCell>
        <mxCell id="ZawDycogkMAxbrw4sLiI-26" value="Kafka" style="shape=cylinder3;whiteSpace=wrap;html=1;boundedLbl=1;backgroundOutline=1;size=15;" vertex="1" parent="1">
          <mxGeometry x="470" y="170" width="60" height="180" as="geometry" />
        </mxCell>
        <mxCell id="ZawDycogkMAxbrw4sLiI-29" value="Data CG" style="rounded=1;whiteSpace=wrap;html=1;" vertex="1" parent="1">
          <mxGeometry x="568" y="219" width="70" height="50" as="geometry" />
        </mxCell>
        <mxCell id="ZawDycogkMAxbrw4sLiI-31" value="" style="endArrow=classic;html=1;rounded=0;" edge="1" parent="1">
          <mxGeometry width="50" height="50" relative="1" as="geometry">
            <mxPoint x="430" y="250" as="sourcePoint" />
            <mxPoint x="470" y="250" as="targetPoint" />
          </mxGeometry>
        </mxCell>
        <mxCell id="ZawDycogkMAxbrw4sLiI-32" value="" style="endArrow=classic;html=1;rounded=0;" edge="1" parent="1">
          <mxGeometry width="50" height="50" relative="1" as="geometry">
            <mxPoint x="529" y="248" as="sourcePoint" />
            <mxPoint x="569" y="248" as="targetPoint" />
          </mxGeometry>
        </mxCell>
        <mxCell id="ZawDycogkMAxbrw4sLiI-33" value="InfluxDB" style="shape=cylinder3;whiteSpace=wrap;html=1;boundedLbl=1;backgroundOutline=1;size=15;" vertex="1" parent="1">
          <mxGeometry x="680" y="200" width="60" height="80" as="geometry" />
        </mxCell>
        <mxCell id="ZawDycogkMAxbrw4sLiI-34" value="" style="endArrow=classic;html=1;rounded=0;" edge="1" parent="1">
          <mxGeometry width="50" height="50" relative="1" as="geometry">
            <mxPoint x="638" y="248" as="sourcePoint" />
            <mxPoint x="678" y="248" as="targetPoint" />
          </mxGeometry>
        </mxCell>
        <mxCell id="ZawDycogkMAxbrw4sLiI-35" value="" style="rounded=1;whiteSpace=wrap;html=1;" vertex="1" parent="1">
          <mxGeometry x="630" y="310" width="90" height="50" as="geometry" />
        </mxCell>
      </root>
    </mxGraphModel>
  </diagram>
</mxfile>
